# xmcd CD database file
#
# Track frame offsets:
#	225
#	11069
#	25429
#	44291
#	56985
#	72923
#	85361
#	99027
#	116680
#	134891
#	147621
#	160391
#	174258
#	189593
#	205868
#	217685
#	229143
#	241296
#	256759
#	268067
#	279109
#	289938
#	304585
#	315935
#
# Disc length: 4373 seconds
#
# Revision: 1
# Processed by: cddbd v1.5.2PL0 Copyright (c) Steve Scherf et al.
# Submitted via: CDex 1.51
#
DISCID=5e111218
DTITLE=Johnny Howard - The World of Johnny Howard and Moonlight Serenades
DYEAR=1969
DGENRE=
TTITLE0=Sugar, Sugar
TTITLE1=light My Fire
TTITLE2=Can't Take My Eyes Off You
TTITLE3=Yellow Submarine
TTITLE4=I'll Never Fall In Love Again
TTITLE5=Downtown
TTITLE6=Aquarius
TTITLE7=Ode to Billy Joe
TTITLE8=Mrs Robinson
TTITLE9=Winchester Cathedral
TTITLE10=Sunrise, Sunset
TTITLE11=The Last Waltz
TTITLE12=Moonlight Serenade
TTITLE13=A Man and a Woman
TTITLE14=Joanna
TTITLE15=You Only Live Twice
TTITLE16=Spanish Eyes
TTITLE17=Lara's Theme
TTITLE18=Moonlight and Roses
TTITLE19=Love is Blue
TTITLE20=The Last Waltz
TTITLE21=A Man without Love
TTITLE22=I Love You (And You Love Me)
TTITLE23=Dream
EXTD=YEAR: 1969
EXTT0=
EXTT1=
EXTT2=
EXTT3=
EXTT4=
EXTT5=
EXTT6=
EXTT7=
EXTT8=
EXTT9=
EXTT10=
EXTT11=
EXTT12=
EXTT13=
EXTT14=
EXTT15=
EXTT16=
EXTT17=
EXTT18=
EXTT19=
EXTT20=
EXTT21=
EXTT22=
EXTT23=
PLAYORDER=
